<svg width="14" height="16" viewBox="0 0 14 16" fill="none" xmlns="http://www.w3.org/2000/svg">
<path d="M13.8084 7.72727C13.8084 9.31345 13.5078 10.6629 12.9064 11.7756C12.3098 12.8883 11.4954 13.7382 10.4632 14.3253C9.43578 14.9077 8.28048 15.1989 6.99734 15.1989C5.70472 15.1989 4.54469 14.9053 3.51722 14.3182C2.48976 13.7311 1.67773 12.8812 1.08114 11.7685C0.484553 10.6558 0.186257 9.30871 0.186257 7.72727C0.186257 6.1411 0.484553 4.79167 1.08114 3.67898C1.67773 2.56629 2.48976 1.71875 3.51722 1.13636C4.54469 0.549242 5.70472 0.255681 6.99734 0.255681C8.28048 0.255681 9.43578 0.549242 10.4632 1.13636C11.4954 1.71875 12.3098 2.56629 12.9064 3.67898C13.5078 4.79167 13.8084 6.1411 13.8084 7.72727ZM10.6905 7.72727C10.6905 6.69981 10.5366 5.83333 10.2289 5.12784C9.92584 4.42235 9.49734 3.88731 8.94336 3.52273C8.38938 3.15814 7.74071 2.97585 6.99734 2.97585C6.25397 2.97585 5.60529 3.15814 5.05131 3.52273C4.49734 3.88731 4.06647 4.42235 3.7587 5.12784C3.45567 5.83333 3.30415 6.69981 3.30415 7.72727C3.30415 8.75473 3.45567 9.62121 3.7587 10.3267C4.06647 11.0322 4.49734 11.5672 5.05131 11.9318C5.60529 12.2964 6.25397 12.4787 6.99734 12.4787C7.74071 12.4787 8.38938 12.2964 8.94336 11.9318C9.49734 11.5672 9.92584 11.0322 10.2289 10.3267C10.5366 9.62121 10.6905 8.75473 10.6905 7.72727Z" fill="#FFFF00"/>
</svg>
