<?xml version="1.0" encoding="UTF-8"?>
<!DOCTYPE svg PUBLIC "-//W3C//DTD SVG 1.1//EN" "http://www.w3.org/Graphics/SVG/1.1/DTD/svg11.dtd">
<svg xmlns="http://www.w3.org/2000/svg" version="1.1" width="99px" height="109px" style="shape-rendering:geometricPrecision; text-rendering:geometricPrecision; image-rendering:optimizeQuality; fill-rule:evenodd; clip-rule:evenodd" xmlns:xlink="http://www.w3.org/1999/xlink">
<g><path style="opacity:1" fill="#333331" d="M -0.5,-0.5 C 32.5,-0.5 65.5,-0.5 98.5,-0.5C 98.5,13.5 98.5,27.5 98.5,41.5C 90.0536,10.583 69.7202,-2.91703 37.5,1C 16.1888,7.46639 3.52215,21.6331 -0.5,43.5C -0.5,28.8333 -0.5,14.1667 -0.5,-0.5 Z"/></g>
<g><path style="opacity:1" fill="#fafa02" d="M 98.5,41.5 C 98.5,49.8333 98.5,58.1667 98.5,66.5C 93.3879,89.9455 79.0545,103.946 55.5,108.5C 51.1667,108.5 46.8333,108.5 42.5,108.5C 18.0694,103.736 3.73602,89.069 -0.5,64.5C -0.5,57.5 -0.5,50.5 -0.5,43.5C 3.52215,21.6331 16.1888,7.46639 37.5,1C 69.7202,-2.91703 90.0536,10.583 98.5,41.5 Z"/></g>
<g><path style="opacity:1" fill="#333331" d="M 23.5,61.5 C 23.287,54.7895 23.6204,48.1228 24.5,41.5C 28.5223,25.3342 38.8556,18.5008 55.5,21C 66.5595,24.9034 73.0595,32.7368 75,44.5C 76.6025,56.4858 74.6025,67.8192 69,78.5C 56.28,91.4575 43.28,91.7909 30,79.5C 26.5378,73.9452 24.3712,67.9452 23.5,61.5 Z"/></g>
<g><path style="opacity:1" fill="#9f9f19" d="M 24.5,41.5 C 23.6204,48.1228 23.287,54.7895 23.5,61.5C 22.3475,55.6812 22.1808,49.6812 23,43.5C 23.2784,42.5842 23.7784,41.9175 24.5,41.5 Z"/></g>
<g><path style="opacity:1" fill="#333331" d="M -0.5,64.5 C 3.73602,89.069 18.0694,103.736 42.5,108.5C 28.1667,108.5 13.8333,108.5 -0.5,108.5C -0.5,93.8333 -0.5,79.1667 -0.5,64.5 Z"/></g>
<g><path style="opacity:1" fill="#333331" d="M 98.5,66.5 C 98.5,80.5 98.5,94.5 98.5,108.5C 84.1667,108.5 69.8333,108.5 55.5,108.5C 79.0545,103.946 93.3879,89.9455 98.5,66.5 Z"/></g>
</svg>
