<svg xmlns="http://www.w3.org/2000/svg" width="14" height="16" fill="none"><path fill="#FF0" d="M13.808 7.727c0 1.586-.3 2.936-.902 4.049-.596 1.112-1.41 1.962-2.443 2.55-1.027.582-2.183.873-3.466.873-1.292 0-2.452-.294-3.48-.88-1.027-.588-1.84-1.438-2.436-2.55-.596-1.113-.895-2.46-.895-4.042 0-1.586.299-2.935.895-4.048.597-1.113 1.409-1.96 2.436-2.543C4.545.55 5.705.256 6.997.256c1.283 0 2.439.293 3.466.88 1.032.583 1.847 1.43 2.443 2.543.602 1.113.902 2.462.902 4.048Zm-3.117 0c0-1.027-.154-1.894-.462-2.6-.303-.705-.732-1.24-1.286-1.604-.554-.365-1.202-.547-1.946-.547-.743 0-1.392.182-1.946.547-.554.364-.985.9-1.292 1.605-.303.705-.455 1.572-.455 2.6 0 1.027.152 1.893.455 2.599.307.705.738 1.24 1.292 1.605.554.364 1.203.547 1.946.547.744 0 1.392-.183 1.946-.547.554-.365.983-.9 1.286-1.605.308-.706.462-1.572.462-2.6Z"/></svg>